{"title":"Lila.And.Eve.2015.720p.WEB-DL.DD5.1.H264-RARBG","uid":12133851,"size":3151601705,"categoryP":"video","categoryS":"hd___movies","magnet":"?xt=urn:btih:5be338d7fc04329a4cfc46a30cb04c45ad62c92e&amp;dn=Lila.And.Eve.2015.720p.WEB-DL.DD5.1.H264-RARBG&amp;tr=udp%3A%2F%2Ftracker.openbittorrent.com%3A80&amp;tr=udp%3A%2F%2Fopen.demonii.com%3A1337&amp;tr=udp%3A%2F%2Ftracker.coppersurfer.tk%3A6969&amp;tr=udp%3A%2F%2Fexodus.desync.com%3A6969","seeders":1,"leechers":0,"uploader":"vickey1992","files":5,"time":1437133949,"description":"Video\nID                                       : 1\nFormat                                   : AVC\nFormat/Info                              : Advanced Video Codec\nFormat profile                           : &lt;a class=&quot;__cf_email__&quot; href=&quot;/cdn-cgi/l/email-protection&quot; data-cfemail=&quot;054d6c626d4549362b34&quot;&gt;[email&amp;#160;protected]&lt;/a&gt;&lt;script data-cfhash='f9e31' type=&quot;text/javascript&quot;&gt;\n/* &lt;![CDATA[ */!function(){try{var t=&quot;currentScript&quot;in document?document.currentScript:function(){for(var t=document.getElementsByTagName(&quot;script&quot;),e=t.length;e--;)if(t[e].getAttribute(&quot;data-cfhash&quot;))return t[e]}();if(t&amp;&amp;t.previousSibling){var e,r,n,i,c=t.previousSibling,a=c.getAttribute(&quot;data-cfemail&quot;);if(a){for(e=&quot;&quot;,r=parseInt(a.substr(0,2),16),n=2;a.length-n;n+=2)i=parseInt(a.substr(n,2),16)^r,e+=String.fromCharCode(i);e=document.createTextNode(e),c.parentNode.replaceChild(e,c)}t.parentNode.removeChild(t);}}catch(u){}}()/* ]]&gt; */&lt;/script&gt;\nFormat settings, CABAC                   : No\nFormat settings, ReFrames                : 2 frames\nCodec ID                                 : V_MPEG4/ISO/AVC\nDuration                                 : 1h 34mn\nBit rate                                 : 3 987 Kbps\nWidth                                    : 1 280 pixels\nHeight                                   : 690 pixels\nDisplay aspect ratio                     : 1.85:1\nFrame rate mode                          : Constant\nFrame rate                               : 23.976 fps\nColor space                              : YUV\nChroma subsampling                       : 4:2:0\nBit depth                                : 8 bits\nScan type                                : Progressive\nBits/(Pixel*Frame)                       : 0.188\nStream size                              : 2.62 GiB (89%)\nTitle                                    : Lila.And.Eve.2015.720p.WEB-DL.DD5.1.H264-RARBG\nLanguage                                 : English\nDefault                                  : Yes\nForced                                   : No\nColor range                              : Limited\nColor primaries                          : BT.709\nTransfer characteristics                 : BT.709\nMatrix coefficients                      : BT.709\n\nAudio\nID                                       : 2\nFormat                                   : AC-3\nFormat/Info                              : Audio Coding 3\nMode extension                           : CM (complete main)\nFormat settings, Endianness              : Big\nCodec ID                                 : A_AC3\nDuration                                 : 1h 34mn\nBit rate mode                            : Constant\nBit rate                                 : 384 Kbps\nChannel(s)                               : 6 channels\nChannel positions                        : Front: L C R, Side: L R, LFE\nSampling rate                            : 48.0 KHz\nBit depth                                : 16 bits\nCompression mode                         : Lossy\nStream size                              : 259 MiB (9%)\nTitle                                    : Lila.And.Eve.2015.720p.WEB-DL.DD5.1.H264-RARBG\nLanguage                                 : English\nDefault                                  : Yes\nForced                                   : No\n\nText\nID                                       : 3\nFormat                                   : UTF-8\nCodec ID                                 : S_TEXT/UTF8\nCodec ID/Info                            : UTF-8 Plain Text\nLanguage                                 : English\nDefault                                  : No\nForced                                   : No\n\nMenu\n00:00:00.000                             : en:1\n00:01:33.000                             : en:2\n00:10:06.000                             : en:3\n00:18:12.000                             : en:4\n00:28:46.000                             : en:5\n00:38:16.000                             : en:6\n00:48:02.000                             : en:7\n00:56:44.000                             : en:8\n01:07:44.000                             : en:9\n01:14:03.000                             : en:10\n01:21:25.000                             : en:11\n01:29:09.000                             : en:12","torrent":{"xt":"urn:btih:5be338d7fc04329a4cfc46a30cb04c45ad62c92e","amp;dn":"Lila.And.Eve.2015.720p.WEB-DL.DD5.1.H264-RARBG","amp;tr":["udp%3A%2F%2Ftracker.openbittorrent.com%3A80","udp%3A%2F%2Fopen.demonii.com%3A1337","udp%3A%2F%2Ftracker.coppersurfer.tk%3A6969","udp%3A%2F%2Fexodus.desync.com%3A6969"],"infoHash":"5be338d7fc04329a4cfc46a30cb04c45ad62c92e","infoHashBuffer":{"type":"Buffer","data":[91,227,56,215,252,4,50,154,76,252,70,163,12,176,76,69,173,98,201,46]},"announce":[],"urlList":[]}}